ply
format ascii 1.0
comment Generated PLY Sphere
obj_info vtkPolyData points and polygons: vtk4.0
element vertex 74
property float x
property float y
property float z
element face 144
property list uchar int vertex_indices
end_header
35.6822 0 93.41719999999999
-35.6822 4.36981e-15 93.41719999999999
35.6822 0 -93.41719999999999
-35.6822 4.36981e-15 -93.41719999999999
5.72016e-15 93.41719999999999 -35.6822
5.72016e-15 93.41719999999999 35.6822
5.72016e-15 -93.41719999999999 -35.6822
5.72016e-15 -93.41719999999999 35.6822
93.41719999999999 35.6822 6.12323e-15
93.41719999999999 -35.6822 6.12323e-15
-93.41719999999999 35.6822 6.12323e-15
-93.41719999999999 -35.6822 6.12323e-15
-57.735 57.735 57.735
57.735 -57.735 57.735
-57.735 -57.735 -57.735
57.735 57.735 -57.735
57.735 57.735 57.735
-57.735 57.735 -57.735
-57.735 -57.735 57.735
57.735 -57.735 -57.735
50 30.9017 80.90170000000001
30.9017 80.90170000000001 50
21.8508 57.2061 79.0569
-30.9017 80.90170000000001 50
-13.5045 35.3553 92.5615
-50 30.9017 80.90170000000001
0.00146319 0 100
-50 -30.9017 80.90170000000001
-30.9017 -80.90170000000001 50
-21.8508 -57.2061 79.0569
30.9017 -80.90170000000001 50
13.5045 -35.3553 92.5615
50 -30.9017 80.90170000000001
50 -30.9017 -80.90170000000001
30.9017 -80.90170000000001 -50
21.8508 -57.2061 -79.0569
-30.9017 -80.90170000000001 -50
-13.5045 -35.3553 -92.5615
-50 -30.9017 -80.90170000000001
0.00146319 0 -100
-50 30.9017 -80.90170000000001
-30.9017 80.90170000000001 -50
-21.8508 57.2061 -79.0569
30.9017 80.90170000000001 -50
13.5045 35.3553 -92.5615
50 30.9017 -80.90170000000001
80.90170000000001 50 30.9017
57.2061 79.0569 21.8508
80.90170000000001 50 -30.9017
35.3553 92.5615 -13.5045
6.12323e-15 100 6.12323e-15
-80.90170000000001 50 -30.9017
-57.2061 79.0569 -21.8508
-80.90170000000001 50 30.9017
-35.3553 92.5615 13.5045
-80.90170000000001 -50 30.9017
-57.2061 -79.0569 21.8508
-80.90170000000001 -50 -30.9017
-35.3553 -92.5615 -13.5045
6.12323e-15 -100 6.12323e-15
80.90170000000001 -50 -30.9017
57.2061 -79.0569 -21.8508
80.90170000000001 -50 30.9017
35.3553 -92.5615 13.5045
79.0569 21.8508 57.2061
92.5615 -13.5045 35.3553
100 0 6.12323e-15
79.0569 -21.8508 -57.2061
92.5615 13.5045 -35.3553
-79.0569 21.8508 -57.2061
-92.5615 -13.5045 -35.3553
-100 1.22465e-14 6.12323e-15
-79.0569 -21.8508 57.2061
-92.5615 13.5045 35.3553
3  16 21 20
3  21 5 22
3  22 0 20
3  21 22 20
3  5 23 22
3  23 12 24
3  24 0 22
3  23 24 22
3  1 26 25
3  26 0 24
3  24 12 25
3  26 24 25
3  18 28 27
3  28 7 29
3  29 1 27
3  28 29 27
3  7 30 29
3  30 13 31
3  31 1 29
3  30 31 29
3  0 26 32
3  26 1 31
3  31 13 32
3  26 31 32
3  19 34 33
3  34 6 35
3  35 2 33
3  34 35 33
3  6 36 35
3  36 14 37
3  37 2 35
3  36 37 35
3  3 39 38
3  39 2 37
3  37 14 38
3  39 37 38
3  17 41 40
3  41 4 42
3  42 3 40
3  41 42 40
3  4 43 42
3  43 15 44
3  44 3 42
3  43 44 42
3  2 39 45
3  39 3 44
3  44 15 45
3  39 44 45
3  16 46 21
3  46 8 47
3  47 5 21
3  46 47 21
3  8 48 47
3  48 15 49
3  49 5 47
3  48 49 47
3  4 50 43
3  50 5 49
3  49 15 43
3  50 49 43
3  17 51 41
3  51 10 52
3  52 4 41
3  51 52 41
3  10 53 52
3  53 12 54
3  54 4 52
3  53 54 52
3  5 50 23
3  50 4 54
3  54 12 23
3  50 54 23
3  18 55 28
3  55 11 56
3  56 7 28
3  55 56 28
3  11 57 56
3  57 14 58
3  58 7 56
3  57 58 56
3  6 59 36
3  59 7 58
3  58 14 36
3  59 58 36
3  19 60 34
3  60 9 61
3  61 6 34
3  60 61 34
3  9 62 61
3  62 13 63
3  63 6 61
3  62 63 61
3  7 59 30
3  59 6 63
3  63 13 30
3  59 63 30
3  16 20 46
3  20 0 64
3  64 8 46
3  20 64 46
3  0 32 64
3  32 13 65
3  65 8 64
3  32 65 64
3  9 66 62
3  66 8 65
3  65 13 62
3  66 65 62
3  19 33 60
3  33 2 67
3  67 9 60
3  33 67 60
3  2 45 67
3  45 15 68
3  68 9 67
3  45 68 67
3  8 66 48
3  66 9 68
3  68 15 48
3  66 68 48
3  17 40 51
3  40 3 69
3  69 10 51
3  40 69 51
3  3 38 69
3  38 14 70
3  70 10 69
3  38 70 69
3  11 71 57
3  71 10 70
3  70 14 57
3  71 70 57
3  18 27 55
3  27 1 72
3  72 11 55
3  27 72 55
3  1 25 72
3  25 12 73
3  73 11 72
3  25 73 72
3  10 71 53
3  71 11 73
3  73 12 53
3  71 73 53
