ply
format ascii 1.0
comment Generated PLY Sphere
obj_info vtkPolyData points and polygons: vtk4.0
element vertex 182
property float x
property float y
property float z
element face 360
property list uchar int vertex_indices
end_header
54 54 73.58
60.0506 54 72.6217
59.7544 55.8697 72.6217
58.895 57.5564 72.6217
57.5564 58.895 72.6217
55.8697 59.7544 72.6217
54 60.0506 72.6217
52.1303 59.7544 72.6217
50.4436 58.895 72.6217
49.105 57.5564 72.6217
48.2456 55.8697 72.6217
47.9494 54 72.6217
48.2456 52.1303 72.6217
49.105 50.4436 72.6217
50.4436 49.105 72.6217
52.1303 48.2456 72.6217
54 47.9494 72.6217
55.8697 48.2456 72.6217
57.5564 49.105 72.6217
58.895 50.4436 72.6217
59.7544 52.1303 72.6217
65.5088 54 69.8406
64.9456 57.5564 69.8406
63.3108 60.7647 69.8406
60.7647 63.3108 69.8406
57.5564 64.9456 69.8406
54 65.5088 69.8406
50.4436 64.9456 69.8406
47.2353 63.3108 69.8406
44.6892 60.7647 69.8406
43.0544 57.5564 69.8406
42.4912 54 69.8406
43.0544 50.4436 69.8406
44.6892 47.2353 69.8406
47.2353 44.6892 69.8406
50.4436 43.0544 69.8406
54 42.4912 69.8406
57.5564 43.0544 69.8406
60.7647 44.6892 69.8406
63.3108 47.2353 69.8406
64.9456 50.4436 69.8406
69.8406 54 65.5088
69.0653 58.895 65.5088
66.8153 63.3108 65.5088
63.3108 66.8153 65.5088
58.895 69.0653 65.5088
54 69.8406 65.5088
49.105 69.0653 65.5088
44.6892 66.8153 65.5088
41.1847 63.3108 65.5088
38.9347 58.895 65.5088
38.1594 54 65.5088
38.9347 49.105 65.5088
41.1847 44.6892 65.5088
44.6892 41.1847 65.5088
49.105 38.9347 65.5088
54 38.1594 65.5088
58.895 38.9347 65.5088
63.3108 41.1847 65.5088
66.8153 44.6892 65.5088
69.0653 49.105 65.5088
72.6217 54 60.0506
71.7103 59.7544 60.0506
69.0653 64.9456 60.0506
64.9456 69.0653 60.0506
59.7544 71.7103 60.0506
54 72.6217 60.0506
48.2456 71.7103 60.0506
43.0544 69.0653 60.0506
38.9347 64.9456 60.0506
36.2897 59.7544 60.0506
35.3783 54 60.0506
36.2897 48.2456 60.0506
38.9347 43.0544 60.0506
43.0544 38.9347 60.0506
48.2456 36.2897 60.0506
54 35.3783 60.0506
59.7544 36.2897 60.0506
64.9456 38.9347 60.0506
69.0653 43.0544 60.0506
71.7103 48.2456 60.0506
73.58 54 54
72.6217 60.0506 54
69.8406 65.5088 54
65.5088 69.8406 54
60.0506 72.6217 54
54 73.58 54
47.9494 72.6217 54
42.4912 69.8406 54
38.1594 65.5088 54
35.3783 60.0506 54
34.42 54 54
35.3783 47.9494 54
38.1594 42.4912 54
42.4912 38.1594 54
47.9494 35.3783 54
54 34.42 54
60.0506 35.3783 54
65.5088 38.1594 54
69.8406 42.4912 54
72.6217 47.9494 54
72.6217 54 47.9494
71.7103 59.7544 47.9494
69.0653 64.9456 47.9494
64.9456 69.0653 47.9494
59.7544 71.7103 47.9494
54 72.6217 47.9494
48.2456 71.7103 47.9494
43.0544 69.0653 47.9494
38.9347 64.9456 47.9494
36.2897 59.7544 47.9494
35.3783 54 47.9494
36.2897 48.2456 47.9494
38.9347 43.0544 47.9494
43.0544 38.9347 47.9494
48.2456 36.2897 47.9494
54 35.3783 47.9494
59.7544 36.2897 47.9494
64.9456 38.9347 47.9494
69.0653 43.0544 47.9494
71.7103 48.2456 47.9494
69.8406 54 42.4912
69.0653 58.895 42.4912
66.8153 63.3108 42.4912
63.3108 66.8153 42.4912
58.895 69.0653 42.4912
54 69.8406 42.4912
49.105 69.0653 42.4912
44.6892 66.8153 42.4912
41.1847 63.3108 42.4912
38.9347 58.895 42.4912
38.1594 54 42.4912
38.9347 49.105 42.4912
41.1847 44.6892 42.4912
44.6892 41.1847 42.4912
49.105 38.9347 42.4912
54 38.1594 42.4912
58.895 38.9347 42.4912
63.3108 41.1847 42.4912
66.8153 44.6892 42.4912
69.0653 49.105 42.4912
65.5088 54 38.1594
64.9456 57.5564 38.1594
63.3108 60.7647 38.1594
60.7647 63.3108 38.1594
57.5564 64.9456 38.1594
54 65.5088 38.1594
50.4436 64.9456 38.1594
47.2353 63.3108 38.1594
44.6892 60.7647 38.1594
43.0544 57.5564 38.1594
42.4912 54 38.1594
43.0544 50.4436 38.1594
44.6892 47.2353 38.1594
47.2353 44.6892 38.1594
50.4436 43.0544 38.1594
54 42.4912 38.1594
57.5564 43.0544 38.1594
60.7647 44.6892 38.1594
63.3108 47.2353 38.1594
64.9456 50.4436 38.1594
60.0506 54 35.3783
59.7544 55.8697 35.3783
58.895 57.5564 35.3783
57.5564 58.895 35.3783
55.8697 59.7544 35.3783
54 60.0506 35.3783
52.1303 59.7544 35.3783
50.4436 58.895 35.3783
49.105 57.5564 35.3783
48.2456 55.8697 35.3783
47.9494 54 35.3783
48.2456 52.1303 35.3783
49.105 50.4436 35.3783
50.4436 49.105 35.3783
52.1303 48.2456 35.3783
54 47.9494 35.3783
55.8697 48.2456 35.3783
57.5564 49.105 35.3783
58.895 50.4436 35.3783
59.7544 52.1303 35.3783
54 54 34.42
3 0 1 2
3 0 2 3
3 0 3 4
3 0 4 5
3 0 5 6
3 0 6 7
3 0 7 8
3 0 8 9
3 0 9 10
3 0 10 11
3 0 11 12
3 0 12 13
3 0 13 14
3 0 14 15
3 0 15 16
3 0 16 17
3 0 17 18
3 0 18 19
3 0 19 20
3 0 20 1
3 1 21 22
3 22 2 1
3 2 22 23
3 23 3 2
3 3 23 24
3 24 4 3
3 4 24 25
3 25 5 4
3 5 25 26
3 26 6 5
3 6 26 27
3 27 7 6
3 7 27 28
3 28 8 7
3 8 28 29
3 29 9 8
3 9 29 30
3 30 10 9
3 10 30 31
3 31 11 10
3 11 31 32
3 32 12 11
3 12 32 33
3 33 13 12
3 13 33 34
3 34 14 13
3 14 34 35
3 35 15 14
3 15 35 36
3 36 16 15
3 16 36 37
3 37 17 16
3 17 37 38
3 38 18 17
3 18 38 39
3 39 19 18
3 19 39 40
3 40 20 19
3 20 40 21
3 21 1 20
3 21 41 42
3 42 22 21
3 22 42 43
3 43 23 22
3 23 43 44
3 44 24 23
3 24 44 45
3 45 25 24
3 25 45 46
3 46 26 25
3 26 46 47
3 47 27 26
3 27 47 48
3 48 28 27
3 28 48 49
3 49 29 28
3 29 49 50
3 50 30 29
3 30 50 51
3 51 31 30
3 31 51 52
3 52 32 31
3 32 52 53
3 53 33 32
3 33 53 54
3 54 34 33
3 34 54 55
3 55 35 34
3 35 55 56
3 56 36 35
3 36 56 57
3 57 37 36
3 37 57 58
3 58 38 37
3 38 58 59
3 59 39 38
3 39 59 60
3 60 40 39
3 40 60 41
3 41 21 40
3 41 61 62
3 62 42 41
3 42 62 63
3 63 43 42
3 43 63 64
3 64 44 43
3 44 64 65
3 65 45 44
3 45 65 66
3 66 46 45
3 46 66 67
3 67 47 46
3 47 67 68
3 68 48 47
3 48 68 69
3 69 49 48
3 49 69 70
3 70 50 49
3 50 70 71
3 71 51 50
3 51 71 72
3 72 52 51
3 52 72 73
3 73 53 52
3 53 73 74
3 74 54 53
3 54 74 75
3 75 55 54
3 55 75 76
3 76 56 55
3 56 76 77
3 77 57 56
3 57 77 78
3 78 58 57
3 58 78 79
3 79 59 58
3 59 79 80
3 80 60 59
3 60 80 61
3 61 41 60
3 61 81 82
3 82 62 61
3 62 82 83
3 83 63 62
3 63 83 84
3 84 64 63
3 64 84 85
3 85 65 64
3 65 85 86
3 86 66 65
3 66 86 87
3 87 67 66
3 67 87 88
3 88 68 67
3 68 88 89
3 89 69 68
3 69 89 90
3 90 70 69
3 70 90 91
3 91 71 70
3 71 91 92
3 92 72 71
3 72 92 93
3 93 73 72
3 73 93 94
3 94 74 73
3 74 94 95
3 95 75 74
3 75 95 96
3 96 76 75
3 76 96 97
3 97 77 76
3 77 97 98
3 98 78 77
3 78 98 99
3 99 79 78
3 79 99 100
3 100 80 79
3 80 100 81
3 81 61 80
3 81 101 102
3 102 82 81
3 82 102 103
3 103 83 82
3 83 103 104
3 104 84 83
3 84 104 105
3 105 85 84
3 85 105 106
3 106 86 85
3 86 106 107
3 107 87 86
3 87 107 108
3 108 88 87
3 88 108 109
3 109 89 88
3 89 109 110
3 110 90 89
3 90 110 111
3 111 91 90
3 91 111 112
3 112 92 91
3 92 112 113
3 113 93 92
3 93 113 114
3 114 94 93
3 94 114 115
3 115 95 94
3 95 115 116
3 116 96 95
3 96 116 117
3 117 97 96
3 97 117 118
3 118 98 97
3 98 118 119
3 119 99 98
3 99 119 120
3 120 100 99
3 100 120 101
3 101 81 100
3 101 121 122
3 122 102 101
3 102 122 123
3 123 103 102
3 103 123 124
3 124 104 103
3 104 124 125
3 125 105 104
3 105 125 126
3 126 106 105
3 106 126 127
3 127 107 106
3 107 127 128
3 128 108 107
3 108 128 129
3 129 109 108
3 109 129 130
3 130 110 109
3 110 130 131
3 131 111 110
3 111 131 132
3 132 112 111
3 112 132 133
3 133 113 112
3 113 133 134
3 134 114 113
3 114 134 135
3 135 115 114
3 115 135 136
3 136 116 115
3 116 136 137
3 137 117 116
3 117 137 138
3 138 118 117
3 118 138 139
3 139 119 118
3 119 139 140
3 140 120 119
3 120 140 121
3 121 101 120
3 121 141 142
3 142 122 121
3 122 142 143
3 143 123 122
3 123 143 144
3 144 124 123
3 124 144 145
3 145 125 124
3 125 145 146
3 146 126 125
3 126 146 147
3 147 127 126
3 127 147 148
3 148 128 127
3 128 148 149
3 149 129 128
3 129 149 150
3 150 130 129
3 130 150 151
3 151 131 130
3 131 151 152
3 152 132 131
3 132 152 153
3 153 133 132
3 133 153 154
3 154 134 133
3 134 154 155
3 155 135 134
3 135 155 156
3 156 136 135
3 136 156 157
3 157 137 136
3 137 157 158
3 158 138 137
3 138 158 159
3 159 139 138
3 139 159 160
3 160 140 139
3 140 160 141
3 141 121 140
3 141 161 162
3 162 142 141
3 142 162 163
3 163 143 142
3 143 163 164
3 164 144 143
3 144 164 165
3 165 145 144
3 145 165 166
3 166 146 145
3 146 166 167
3 167 147 146
3 147 167 168
3 168 148 147
3 148 168 169
3 169 149 148
3 149 169 170
3 170 150 149
3 150 170 171
3 171 151 150
3 151 171 172
3 172 152 151
3 152 172 173
3 173 153 152
3 153 173 174
3 174 154 153
3 154 174 175
3 175 155 154
3 155 175 176
3 176 156 155
3 156 176 177
3 177 157 156
3 157 177 178
3 178 158 157
3 158 178 179
3 179 159 158
3 159 179 180
3 180 160 159
3 160 180 161
3 161 141 160
3 181 162 161
3 181 163 162
3 181 164 163
3 181 165 164
3 181 166 165
3 181 167 166
3 181 168 167
3 181 169 168
3 181 170 169
3 181 171 170
3 181 172 171
3 181 173 172
3 181 174 173
3 181 175 174
3 181 176 175
3 181 177 176
3 181 178 177
3 181 179 178
3 181 180 179
3 181 161 180
