ply
format ascii 1.0
comment Generated PLY Sphere
obj_info vtkPolyData points and polygons: vtk4.0
element vertex 42
property float x
property float y
property float z
element face 80
property list uchar int vertex_indices
end_header
54 54 73.58
65.5088 54 69.8406
63.3108 60.7647 69.8406
57.5564 64.9456 69.8406
50.4436 64.9456 69.8406
44.6892 60.7647 69.8406
42.4912 54 69.8406
44.6892 47.2353 69.8406
50.4436 43.0544 69.8406
57.5564 43.0544 69.8406
63.3108 47.2353 69.8406
72.6217 54 60.0506
69.0653 64.9456 60.0506
59.7544 71.7103 60.0506
48.2456 71.7103 60.0506
38.9347 64.9456 60.0506
35.3783 54 60.0506
38.9347 43.0544 60.0506
48.2456 36.2897 60.0506
59.7544 36.2897 60.0506
69.0653 43.0544 60.0506
72.6217 54 47.9494
69.0653 64.9456 47.9494
59.7544 71.7103 47.9494
48.2456 71.7103 47.9494
38.9347 64.9456 47.9494
35.3783 54 47.9494
38.9347 43.0544 47.9494
48.2456 36.2897 47.9494
59.7544 36.2897 47.9494
69.0653 43.0544 47.9494
65.5088 54 38.1594
63.3108 60.7647 38.1594
57.5564 64.9456 38.1594
50.4436 64.9456 38.1594
44.6892 60.7647 38.1594
42.4912 54 38.1594
44.6892 47.2353 38.1594
50.4436 43.0544 38.1594
57.5564 43.0544 38.1594
63.3108 47.2353 38.1594
54 54 34.42
3 0 1 2
3 0 2 3
3 0 3 4
3 0 4 5
3 0 5 6
3 0 6 7
3 0 7 8
3 0 8 9
3 0 9 10
3 0 10 1
3 1 11 12
3 12 2 1
3 2 12 13
3 13 3 2
3 3 13 14
3 14 4 3
3 4 14 15
3 15 5 4
3 5 15 16
3 16 6 5
3 6 16 17
3 17 7 6
3 7 17 18
3 18 8 7
3 8 18 19
3 19 9 8
3 9 19 20
3 20 10 9
3 10 20 11
3 11 1 10
3 11 21 22
3 22 12 11
3 12 22 23
3 23 13 12
3 13 23 24
3 24 14 13
3 14 24 25
3 25 15 14
3 15 25 26
3 26 16 15
3 16 26 27
3 27 17 16
3 17 27 28
3 28 18 17
3 18 28 29
3 29 19 18
3 19 29 30
3 30 20 19
3 20 30 21
3 21 11 20
3 21 31 32
3 32 22 21
3 22 32 33
3 33 23 22
3 23 33 34
3 34 24 23
3 24 34 35
3 35 25 24
3 25 35 36
3 36 26 25
3 26 36 37
3 37 27 26
3 27 37 38
3 38 28 27
3 28 38 39
3 39 29 28
3 29 39 40
3 40 30 29
3 30 40 31
3 31 21 30
3 41 32 31
3 41 33 32
3 41 34 33
3 41 35 34
3 41 36 35
3 41 37 36
3 41 38 37
3 41 39 38
3 41 40 39
3 41 31 40
