ply
format ascii 1.0
comment Generated PLY Sphere
obj_info vtkPolyData points and polygons: vtk4.0
element vertex 14
property float x
property float y
property float z
element face 28
property list uchar int vertex_indices
end_header
54 54 73.58
70.9568 54 63.79
62.4784 68.685 63.79
45.5216 68.685 63.79
37.0432 54 63.79
45.5216 39.315 63.79
62.4784 39.315 63.79
70.9568 54 44.21
62.4784 68.685 44.21
45.5216 68.685 44.21
37.0432 54 44.21
45.5216 39.315 44.21
62.4784 39.315 44.21
54 54 34.42
3 0 1 2
3 0 2 3
3 0 3 4
3 0 4 5
3 0 5 6
3 0 6 1
3 0 1 2
3 1 7 8
3 8 2 1
3 2 8 9
3 9 3 2
3 3 9 10
3 10 4 3
3 4 10 11
3 11 5 4
3 5 11 12
3 12 6 5
3 6 12 7
3 7 1 6
3 1 7 8
3 8 2 1
3 13 8 7
3 13 9 8
3 13 10 9
3 13 11 10
3 13 12 11
3 13 7 12
3 13 8 7
